<svg width="72" height="71" viewBox="0 0 72 71" fill="none" xmlns="http://www.w3.org/2000/svg">
<path d="M50.625 35.5H52.875V42.1562H50.625V35.5ZM15.75 42.1562H33.975L27.225 35.5H15.75V42.1562Z" fill="#37455D"/>
<path d="M51.2578 8.33418C51.2091 8.30955 51.1621 8.28175 51.1172 8.25098C49.5671 7.43179 47.9487 6.74516 46.2797 6.19863L45.5203 5.94902C42.4448 4.96462 39.2334 4.45476 36 4.4375C18.6047 4.4375 4.5 18.3463 4.5 35.5C4.49856 41.0427 6.00304 46.4845 8.85697 51.2596C11.7109 56.0346 15.8101 59.9684 20.7281 62.652C20.7844 62.6797 20.8266 62.7213 20.8828 62.749C22.4329 63.5682 24.0513 64.2548 25.7203 64.8014L26.4797 65.051C29.555 66.0365 32.7665 66.5464 36 66.5625C53.3953 66.5625 67.5 52.6537 67.5 35.5C67.5018 29.9537 65.9961 24.5083 63.1396 19.7306C60.283 14.953 56.1801 11.0176 51.2578 8.33418V8.33418ZM36 59.1297C34.7178 59.1252 33.4382 59.0139 32.175 58.7969C30.8119 58.5742 29.471 58.2355 28.1672 57.7846C27.9 57.7014 27.6328 57.6182 27.3797 57.5211C26.4641 57.1804 25.5716 56.7821 24.7078 56.3285C20.879 54.3125 17.6778 51.3084 15.4461 47.6373C13.2144 43.9663 12.0363 39.7663 12.0375 35.4861C12.0375 30.3275 13.7813 25.585 16.6359 21.7021L49.9922 54.5951C46.0406 57.4102 41.2312 59.1297 36 59.1297V59.1297ZM55.3781 49.284L22.0219 16.391C25.9594 13.5898 30.7547 11.8703 36 11.8703C37.2822 11.8754 38.5617 11.9868 39.825 12.2031C41.1881 12.4258 42.529 12.7645 43.8328 13.2154C44.0859 13.2986 44.3531 13.3818 44.6203 13.4789C45.4864 13.8022 46.3317 14.1773 47.1516 14.6021C51.0205 16.6023 54.2608 19.6082 56.5215 23.2943C58.7821 26.9804 59.9769 31.2061 59.9766 35.5139C59.9625 40.6725 58.2187 45.4012 55.3781 49.284V49.284Z" fill="#37455D"/>
<path d="M49.4996 35.5H44.7184L49.4996 40.2149V35.5ZM53.9996 35.5H56.2496V42.1563H53.9996V35.5ZM50.6387 29.4955C49.4012 28.927 47.5449 28.7051 44.2262 28.7051H43.7199C41.934 28.719 41.484 28.6912 40.9074 27.8592C40.5137 27.2768 40.7668 25.8069 41.4277 24.8223C41.5404 24.6554 41.6052 24.4616 41.6151 24.2614C41.625 24.0612 41.5797 23.862 41.484 23.6852C41.3869 23.5097 41.245 23.3624 41.0723 23.2578C40.8996 23.1532 40.7022 23.095 40.4996 23.0889C39.6163 23.0586 38.7453 22.8755 37.9262 22.5481C36.4355 21.924 35.7324 20.8701 35.7324 19.3448C35.7324 15.767 38.798 15.5035 38.9387 15.5035V13.2848C37.2512 13.2848 33.4824 14.8102 33.4824 19.3448C33.4824 21.7715 34.748 23.6436 37.0965 24.6143C37.6418 24.8326 38.2068 24.9998 38.784 25.1135C38.3199 26.4725 38.2777 28.0117 39.023 29.0934C40.2887 30.9377 41.8777 30.9239 43.7059 30.91H44.198C47.8965 30.91 49.0637 31.2289 49.6684 31.5063C50.4699 31.8668 50.6246 32.5463 50.5965 33.6834V33.8221H52.8465V33.6834C52.8465 32.6989 52.8887 30.5217 50.6387 29.4955V29.4955Z" fill="#37455D"/>
<path d="M56.25 33.8359C56.25 30.2721 55.8281 28.4 54.9703 26.9578C53.7609 24.9609 51.8203 23.8515 49.5 23.8515H47.0531C47.4609 22.7006 47.8125 21.1058 47.5453 19.5666C47.0953 16.9596 44.8594 15.4064 41.4844 15.4064V17.6252C44.4375 17.6252 45.1547 18.8871 45.3375 19.941C45.6891 21.9517 44.3813 24.3924 44.3672 24.4201C44.2732 24.5883 44.225 24.7777 44.2275 24.9697C44.23 25.1617 44.2829 25.3498 44.3813 25.5156C44.482 25.6805 44.6243 25.817 44.7943 25.9118C44.9643 26.0065 45.1563 26.0563 45.3516 26.0564H49.5C51.0328 26.0564 52.2281 26.7359 53.0297 28.081C53.4656 28.816 54 29.9531 54 33.8221H56.25V33.8359Z" fill="#37455D"/>
</svg>
