<svg width="48" height="48" viewBox="0 0 48 48" fill="none" xmlns="http://www.w3.org/2000/svg">
<path d="M48 9.12611C46.2348 9.90786 44.3386 10.4361 42.3451 10.6748C44.402 9.44471 45.9409 7.50866 46.6745 5.22791C44.742 6.37517 42.627 7.18271 40.4214 7.61543C38.9382 6.03262 36.9736 4.98351 34.8327 4.63098C32.6918 4.27845 30.4943 4.64222 28.5815 5.66581C26.6686 6.6894 25.1474 8.31554 24.254 10.2918C23.3606 12.268 23.145 14.4838 23.6406 16.595C19.7249 16.3985 15.8942 15.3813 12.3973 13.6094C8.90032 11.8374 5.81522 9.35041 3.3422 6.30969C2.49661 7.76755 2.01039 9.45783 2.01039 11.258C2.00945 12.8785 2.40874 14.4742 3.17283 15.9036C3.93691 17.3329 5.04218 18.5516 6.39056 19.4516C4.8268 19.4019 3.29754 18.9795 1.93006 18.2198V18.3466C1.9299 20.6194 2.71653 22.8224 4.15647 24.5816C5.59641 26.3408 7.60096 27.5479 9.83 27.998C8.37935 28.3904 6.85846 28.4482 5.38219 28.1671C6.01109 30.1227 7.23614 31.8329 8.88583 33.0581C10.5355 34.2834 12.5273 34.9624 14.5822 35C11.0938 37.737 6.78563 39.2217 2.35074 39.2151C1.56515 39.2153 0.780219 39.1695 0 39.0778C4.50167 41.9707 9.74193 43.5059 15.0938 43.5C33.2106 43.5 43.1146 28.503 43.1146 15.4963C43.1146 15.0738 43.104 14.647 43.085 14.2244C45.0115 12.832 46.6743 11.1077 47.9958 9.13245L48 9.12611Z" fill="white"/>
</svg>
