<svg width="57" height="60" viewBox="0 0 57 60" fill="none" xmlns="http://www.w3.org/2000/svg">
<path d="M35.7298 39.375L39.2923 46.3295C37.9418 50.3977 35.4969 53.6932 31.9577 56.2159C28.4185 58.7386 24.4718 60 20.1176 60C16.4853 60 13.1265 59.1193 10.0414 57.358C6.95619 55.5966 4.51134 53.2102 2.7068 50.1989C0.902267 47.1875 0 43.9091 0 40.3636C0 36.25 1.21661 32.5 3.64982 29.1136C6.08303 25.7273 9.2788 23.3295 13.2371 21.9205L13.8309 26.3864C10.9902 27.6136 8.71998 29.4943 7.02022 32.0284C5.32047 34.5625 4.47059 37.3409 4.47059 40.3636C4.47059 44.5682 6.00153 48.1648 9.06342 51.1534C12.1253 54.142 15.81 55.6364 20.1176 55.6364C23.0515 55.6364 25.7583 54.8977 28.2381 53.4205C30.7178 51.9432 32.6388 49.9489 34.0009 47.4375C35.3631 44.9261 35.9393 42.2386 35.7298 39.375ZM54.8695 42.7841L56.8952 46.6705L47.954 51.0341C47.6513 51.1932 47.3137 51.2727 46.9412 51.2727C46.0098 51.2727 45.3462 50.875 44.9504 50.0795L36.6029 33.8182H20.1176C19.5588 33.8182 19.064 33.6307 18.6333 33.2557C18.2025 32.8807 17.9522 32.4205 17.8824 31.875L14.5294 5.31818C14.4828 4.93182 14.5527 4.45455 14.739 3.88636C15.065 2.72727 15.7286 1.78977 16.7298 1.07386C17.731 0.357955 18.8603 0 20.1176 0C21.6544 0 22.97 0.534091 24.0643 1.60227C25.1587 2.67045 25.7059 3.95455 25.7059 5.45455C25.7059 7.02273 25.1005 8.35795 23.8897 9.46023C22.6789 10.5625 21.2819 11.0341 19.6985 10.875L20.9908 20.7273H35.7647V25.0909H21.5496L22.1085 29.4545H38C38.9314 29.4545 39.595 29.8523 39.9908 30.6477L47.954 46.1591L54.8695 42.7841Z" fill="#C4C1C1"/>
</svg>
