<svg width="337" height="350" viewBox="0 0 337 350" fill="none" xmlns="http://www.w3.org/2000/svg">
<path d="M123.995 339C185.688 339 235.7 288.867 235.7 227.025C235.7 165.182 185.688 115.049 123.995 115.049C62.3015 115.049 12.2893 165.182 12.2893 227.025C12.2893 288.867 62.3015 339 123.995 339Z" fill="#D9E6FB"/>
<path d="M208.582 176.888C254.281 176.888 291.326 139.753 291.326 93.944C291.326 48.1353 254.281 11 208.582 11C162.884 11 125.838 48.1353 125.838 93.944C125.838 139.753 162.884 176.888 208.582 176.888Z" fill="#37455D"/>
<path d="M229.998 108.503C231.046 110.305 231.08 112.617 230.093 114.93C229.107 117.244 227.18 119.37 224.738 120.839L124.774 180.366C123.145 181.346 121.86 182.763 121.203 184.306C120.545 185.848 120.568 187.389 121.266 188.591C121.965 189.792 123.282 190.556 124.927 190.712C126.573 190.869 128.412 190.406 130.041 189.426L161.15 170.712L161.652 171.461C163.47 174.245 165.106 177.174 165.619 179.054C165.993 180.467 165.988 182.427 165.743 184.458C165.633 185.466 164.728 186.903 162.677 188.137L137.942 203.017C136.313 203.996 135.029 205.413 134.371 206.956C133.713 208.498 133.736 210.04 134.434 211.241C135.134 212.443 136.45 213.205 138.096 213.362C139.741 213.519 141.581 213.057 143.209 212.077L162.43 200.515L163.111 201.401C165.07 204.087 166.31 206.618 166.349 208.111C166.406 209.52 165.387 212.359 163.628 215.691C162.876 217.134 162.084 218.454 161.5 219.417L144.969 229.362C143.341 230.341 142.056 231.758 141.399 233.301C140.741 234.843 140.764 236.384 141.462 237.586C142.16 238.787 143.477 239.55 145.123 239.707C146.768 239.864 148.608 239.401 150.236 238.421L162.518 231.033L164.32 234.132C165.055 235.398 165.424 236.866 165.4 238.443C165.377 240.019 164.963 241.668 164.183 243.284C163.404 244.898 162.278 246.444 160.877 247.82C159.476 249.197 157.832 250.373 156.051 251.274L144.483 255.527C140.013 257.788 135.298 259.304 130.642 259.977L93.3029 265.38C92.1326 265.55 91.0187 265.447 90.0737 265.084C89.1288 264.72 88.3864 264.108 87.9218 263.31L54.7275 206.213C54.2388 205.373 54.0768 204.358 54.2596 203.282C54.4424 202.207 54.9629 201.114 55.7627 200.124L79.5474 170.75L119.189 117.398C120.178 116.014 121.631 114.861 123.273 114.157C124.917 113.452 126.638 113.244 128.112 113.572C129.587 113.899 129.24 114.412 129.809 115.608C130.377 116.804 130.348 118.272 129.725 119.738L112.821 159.379C112.328 160.53 112.211 161.689 112.484 162.711C112.757 163.734 113.408 164.573 114.353 165.122C115.299 165.671 116.497 165.906 117.797 165.796C119.097 165.687 120.439 165.239 121.655 164.508L216.837 107.249C219.279 105.779 222.039 105.085 224.507 105.321C226.975 105.556 228.951 106.701 229.998 108.503ZM173.444 163.316L230.005 129.899C235.705 126.47 240.2 121.511 242.502 116.113C244.804 110.714 244.724 105.32 242.28 101.114C239.835 96.9091 235.226 94.2386 229.467 93.6903C223.707 93.1412 217.27 94.76 211.57 98.1885L131.211 146.53L142.132 120.92C143.952 116.622 144.034 112.316 142.364 108.811C140.693 105.307 137.384 102.843 133.059 101.884C128.733 100.924 123.687 101.535 118.868 103.6C114.05 105.666 109.789 109.045 106.888 113.103L69.003 166.356L42.2781 198.337C39.8744 201.307 38.3099 204.591 37.76 207.82C37.2102 211.05 37.697 214.097 39.1655 216.621L55.7627 245.169L72.3598 273.717C73.7536 276.113 75.9806 277.949 78.8155 279.039C81.6504 280.13 84.9924 280.436 88.5027 279.928L129.11 271.514C135.635 270.57 142.522 268.831 149.309 266.557L160.877 262.303C164.438 260.501 166.94 257.972 170.196 254.144C172.638 251.274 174.773 248.27 176.33 245.04C177.887 241.811 178.716 238.514 178.762 235.363C178.809 232.212 178.073 229.275 176.601 226.743L173.541 221.48C174.251 220.288 174.925 219.088 175.559 217.881C177.366 214.458 179.849 209.063 179.718 204.618C179.593 200.241 176.883 195.977 174.945 193.328L174.102 192.221C176.889 189.243 178.633 185.772 179.037 182.404C179.455 179.339 179.337 176.367 178.687 173.589C177.816 170.322 175.506 166.465 173.721 163.736L173.444 163.316Z" fill="#37455D"/>
<path d="M235.737 94.2394C236.84 96.1388 236.929 98.5434 235.982 100.926C235.035 103.308 233.131 105.471 230.688 106.941L130.71 166.444C129.082 167.423 127.812 168.866 127.18 170.455C126.55 172.042 126.608 173.646 127.344 174.911C128.081 176.177 129.433 177.002 131.105 177.205C132.777 177.407 134.631 176.97 136.26 175.991L167.369 157.276L167.896 158.067C169.802 161.005 171.529 164.09 172.093 166.057C172.505 167.536 172.545 169.573 172.344 171.678C172.255 172.724 171.372 174.196 169.32 175.431L144.585 190.311C142.956 191.29 141.687 192.732 141.056 194.321C140.425 195.909 140.484 197.512 141.219 198.778C141.955 200.044 143.308 200.869 144.981 201.071C146.653 201.273 148.507 200.837 150.135 199.857L169.356 188.295L170.067 189.232C172.115 192.072 173.431 194.734 173.505 196.287C173.595 197.754 172.628 200.68 170.921 204.104C170.192 205.586 169.42 206.939 168.851 207.926L152.319 217.871C150.691 218.851 149.422 220.293 148.79 221.881C148.159 223.47 148.218 225.073 148.954 226.339C149.69 227.605 151.043 228.43 152.715 228.632C154.387 228.834 156.241 228.398 157.87 227.418L170.151 220.03L172.05 223.294C172.825 224.628 173.232 226.165 173.245 227.803C173.257 229.441 172.876 231.146 172.123 232.806C171.37 234.468 170.264 236.047 168.876 237.445C167.487 238.843 165.847 240.026 164.062 240.921L152.432 245.066C146.999 246.801 143.336 248.025 138.502 249.362L93.5421 258.924C92.3594 259.072 91.2276 258.939 90.2611 258.538C89.2945 258.137 88.5277 257.484 88.0382 256.643L53.0616 196.48C52.5467 195.594 52.359 194.535 52.5195 193.421C52.68 192.307 53.1824 191.183 53.9704 190.174L77.4067 160.2L118.579 108.041C119.55 106.625 120.996 105.462 122.646 104.768C124.296 104.074 126.035 103.9 127.539 104.275C129.041 104.651 130.204 105.552 130.808 106.809C131.412 108.067 131.416 109.593 130.819 111.102L105.825 153.407C105.353 154.592 105.261 155.796 105.561 156.865C105.861 157.934 106.54 158.822 107.512 159.416C108.484 160.009 109.704 160.282 111.019 160.2C112.335 160.118 113.686 159.683 114.901 158.952L222.362 92.6214C224.806 91.1514 227.587 90.4963 230.095 90.7999C232.603 91.1035 234.632 92.3408 235.737 94.2394ZM179.663 149.88L236.238 116.488C241.938 113.059 246.381 108.01 248.59 102.452C250.8 96.8936 250.594 91.2823 248.018 86.8515C245.442 82.4206 240.707 79.5335 234.855 78.8251C229.003 78.1168 222.513 79.6453 216.813 83.0744L124.174 140.488L143.426 112.628C145.172 108.202 145.156 103.727 143.38 100.043C141.606 96.3583 138.194 93.718 133.786 92.6165C129.378 91.5158 124.276 92.0299 119.438 94.0623C114.601 96.0948 110.359 99.507 107.51 103.657L66.614 155.379L43.5132 184.931C41.1446 187.963 39.6343 191.34 39.1515 194.684C38.6688 198.029 39.2327 201.209 40.78 203.868L75.7567 264.031C77.2251 266.554 79.5257 268.517 82.4252 269.719C85.3247 270.92 88.7203 271.319 92.2677 270.875L137.215 261.32C143.743 259.856 149.44 257.816 156.738 255.296L168.369 251.151C171.937 249.362 175.215 246.994 177.99 244.199C180.765 241.405 182.975 238.244 184.479 234.924C185.984 231.604 186.747 228.196 186.722 224.92C186.696 221.645 185.882 218.573 184.331 215.906L181.106 210.36C181.8 209.138 182.454 207.906 183.07 206.666C184.822 203.15 187.215 197.6 186.979 192.975C186.752 188.421 183.906 183.923 181.879 181.122L180.999 179.95C183.755 176.921 185.444 173.353 185.775 169.861C186.129 166.684 185.94 163.592 185.217 160.688C184.257 157.27 181.828 153.204 179.954 150.324L179.663 149.88Z" fill="#F9FAFB"/>
<path d="M205.172 162.033C215.879 162.795 225.175 154.712 225.936 143.979C226.697 133.246 218.633 123.928 207.926 123.165C197.219 122.403 187.923 130.486 187.162 141.219C186.402 151.952 194.465 161.27 205.172 162.033Z" stroke="#37455D" stroke-width="10"/>
<path d="M209.673 165.026L200.295 164.358L195.465 232.517L204.844 233.185L209.673 165.026Z" fill="#37455D"/>
<path d="M206.642 207.802L187.885 206.466L187.219 215.867L205.976 217.203L206.642 207.802Z" fill="#37455D"/>
<path d="M207.475 196.05L179.339 194.047L178.673 203.448L206.809 205.451L207.475 196.05Z" fill="#37455D"/>
<path d="M205.81 219.553L177.674 217.549L177.008 226.951L205.144 228.954L205.81 219.553Z" fill="#37455D"/>
<path d="M257.003 150.288C265.021 143.133 265.734 130.818 258.596 122.781C251.458 114.745 239.173 114.03 231.156 121.185C223.139 128.34 222.426 140.655 229.563 148.691C236.701 156.728 248.986 157.443 257.003 150.288Z" stroke="#37455D" stroke-width="10"/>
<path fill-rule="evenodd" clip-rule="evenodd" d="M245.304 154.834L262.86 139.166L271.051 148.389L267.402 155.618L274.988 152.822L277.24 155.357L274.805 169.623L283.193 179.067L298.809 179.643L305.104 186.731L304.15 203.2L287.394 202.225L245.304 154.834Z" fill="#37455D"/>
<path fill-rule="evenodd" clip-rule="evenodd" d="M207.93 83.6169C200.938 87.6534 196.243 95.1336 196.243 103.694C196.243 116.537 206.811 126.948 219.847 126.948C231.209 126.948 240.694 119.041 242.946 108.508L237.662 111.566C234.611 118.207 227.815 122.868 219.847 122.868C208.992 122.868 200.313 114.217 200.313 103.694C200.313 96.6757 204.173 90.4905 209.964 87.1485L207.93 83.6169Z" fill="#37455D"/>
<path d="M210.056 154.689C220.763 155.452 230.059 147.369 230.82 136.636C231.58 125.903 223.517 116.584 212.81 115.822C202.103 115.06 192.806 123.142 192.046 133.875C191.285 144.608 199.349 153.927 210.056 154.689Z" stroke="#F9FAFB" stroke-width="10"/>
<path d="M214.557 157.682L205.178 157.015L200.349 225.174L209.727 225.841L214.557 157.682Z" fill="#F9FAFB"/>
<path d="M211.526 200.458L192.769 199.123L192.103 208.524L210.86 209.859L211.526 200.458Z" fill="#F9FAFB"/>
<path d="M212.359 188.707L184.223 186.704L183.557 196.105L211.693 198.108L212.359 188.707Z" fill="#F9FAFB"/>
<path d="M210.694 212.21L182.558 210.206L181.892 219.607L210.027 221.611L210.694 212.21Z" fill="#F9FAFB"/>
<path d="M261.073 142.128C269.09 134.974 269.803 122.659 262.666 114.622C255.528 106.586 243.243 105.871 235.226 113.026C227.209 120.18 226.496 132.495 233.633 140.532C240.771 148.569 253.056 149.283 261.073 142.128Z" stroke="#D9E6FB" stroke-width="10"/>
<path fill-rule="evenodd" clip-rule="evenodd" d="M249.374 146.675L266.93 131.007L275.121 140.23L271.472 147.459L279.058 144.662L281.31 147.198L278.875 161.464L287.262 170.908L302.879 171.483L309.174 178.571L308.22 195.041L291.464 194.066L249.374 146.675Z" fill="#D9E6FB"/>
<path fill-rule="evenodd" clip-rule="evenodd" d="M212.88 81.1389C204.383 84.8378 198.684 92.4504 198.684 102.062C198.684 114.904 209.252 125.315 222.289 125.315C234.802 125.315 245.042 115.723 245.843 103.595L241.37 106.184C239.453 114.752 231.686 121.236 222.289 121.236C211.433 121.236 202.754 112.585 202.754 102.062C202.754 94.2206 207.458 87.7569 214.925 84.6891L212.88 81.1389Z" fill="#D9E6FB"/>
</svg>
