<svg width="435" height="428" viewBox="0 0 435 428" fill="none" xmlns="http://www.w3.org/2000/svg">
<g clip-path="url(#clip0_471_340)">
<g filter="url(#filter0_d_471_340)">
<path d="M162.5 134C238.991 134 301 196.232 301 273C301 349.768 238.991 412 162.5 412C86.0086 412 24 349.768 24 273C24 196.232 86.0086 134 162.5 134Z" fill="#37455D"/>
<circle cx="259" cy="168" r="135" transform="rotate(-90 259 168)" fill="#D9E6FB"/>
<path d="M148.959 241.796C148.959 247.927 144.019 252.901 137.93 252.901C131.84 252.901 126.9 247.943 126.9 241.796C126.9 235.648 131.824 230.69 137.93 230.69C144.035 230.69 148.959 235.648 148.959 241.796ZM253.068 370.42C246.915 376.615 236.938 376.615 230.785 370.42L183.634 322.944C167.717 333.74 147.829 339.067 126.636 336.215C90.5745 331.365 61.2483 301.598 56.679 265.26C49.8881 211.24 95.002 165.827 148.616 172.688C184.714 177.289 214.28 206.826 219.086 243.128C221.918 264.467 216.629 284.496 205.906 300.519L253.056 347.995C259.213 354.159 259.213 364.233 253.068 370.42ZM171.845 244.255C171.845 225.336 156.68 210.066 137.575 210.066C119.18 210.066 104.015 225.336 104.015 244.255C104.015 259.465 126.187 287.288 134.688 297.402C135.488 298.314 136.63 298.909 137.575 298.909C138.838 298.909 140.041 298.33 140.846 297.406C149.668 287.288 171.845 259.445 171.845 244.255Z" fill="#D9E6FB"/>
<path d="M152.959 234.796C152.959 240.927 148.019 245.901 141.93 245.901C135.84 245.901 130.9 240.943 130.9 234.796C130.9 228.648 135.824 223.69 141.93 223.69C148.035 223.69 152.959 228.648 152.959 234.796ZM257.068 363.42C250.915 369.615 240.938 369.615 234.785 363.42L187.634 315.944C171.717 326.74 151.829 332.067 130.636 329.215C94.5745 324.365 65.2483 294.598 60.679 258.26C53.8881 204.24 99.002 158.827 152.616 165.688C188.714 170.289 218.28 199.826 223.086 236.128C225.918 257.467 220.629 277.496 209.906 293.519L257.056 340.995C263.213 347.159 263.213 357.233 257.068 363.42V363.42ZM175.845 237.255C175.845 218.336 160.68 203.066 141.575 203.066C123.18 203.066 108.015 218.336 108.015 237.255C108.015 252.465 130.187 280.288 138.688 290.402C139.488 291.314 140.63 291.909 141.575 291.909C142.838 291.909 144.041 291.33 144.846 290.406C153.668 280.288 175.845 252.445 175.845 237.255Z" fill="white"/>
<path fill-rule="evenodd" clip-rule="evenodd" d="M261.631 39.3369C264.408 36.56 268.175 35 272.103 35C276.031 35 279.798 36.56 282.576 39.3369L381.034 137.781C382.425 139.171 383.206 141.058 383.206 143.024C383.206 144.991 382.425 146.877 381.034 148.268C379.644 149.659 377.757 150.44 375.791 150.44C373.824 150.44 371.938 149.659 370.547 148.268L272.103 49.8093L173.659 148.268C172.269 149.659 170.382 150.44 168.416 150.44C166.449 150.44 164.563 149.659 163.172 148.268C161.781 146.877 161 144.991 161 143.024C161 141.058 161.781 139.171 163.172 137.781L261.631 39.3369ZM271.473 50.4179L272.082 49.8093L370.526 148.268C371.916 149.659 373.803 150.44 375.769 150.44C377.736 150.44 379.622 149.659 381.013 148.268C382.404 146.877 383.185 144.991 383.185 143.024C383.185 141.058 382.404 139.171 381.013 137.781L282.554 39.3369C279.777 36.56 276.01 35 272.082 35C268.154 35 264.387 36.56 261.61 39.3369L261 39.9463L271.473 50.4179Z" fill="white"/>
<path fill-rule="evenodd" clip-rule="evenodd" d="M360.979 151.771L272.104 62.8957L183.229 151.771V214.087C183.229 219.98 185.569 225.631 189.736 229.798C193.903 233.965 199.554 236.306 205.447 236.306H338.76C344.653 236.306 350.304 233.965 354.471 229.798C358.638 225.631 360.979 219.98 360.979 214.087V151.771Z" fill="white"/>
<path fill-rule="evenodd" clip-rule="evenodd" d="M290.073 40.1119L385.323 135.362V202.148C385.323 208.463 382.814 214.52 378.348 218.986C373.882 223.452 367.825 225.961 361.51 225.961H218.635C212.32 225.961 206.263 223.452 201.797 218.986C197.331 214.52 194.823 208.463 194.823 202.148V135.362L290.073 40.1119V40.1119ZM369.448 27.523V83.0855L337.698 51.3355V27.523C337.698 25.4179 338.534 23.3989 340.022 21.9104C341.511 20.4218 343.53 19.5855 345.635 19.5855H361.51C363.615 19.5855 365.634 20.4218 367.123 21.9104C368.611 23.3989 369.448 25.4179 369.448 27.523Z" fill="#37455D"/>
<path fill-rule="evenodd" clip-rule="evenodd" d="M278.849 11.648C281.826 8.67188 285.863 7 290.073 7C294.282 7 298.319 8.67188 301.296 11.648L406.817 117.153C408.308 118.644 409.145 120.665 409.145 122.773C409.145 124.881 408.308 126.902 406.817 128.393C405.327 129.883 403.305 130.721 401.198 130.721C399.09 130.721 397.068 129.883 395.578 128.393L290.073 22.8716L184.567 128.393C183.077 129.883 181.055 130.721 178.948 130.721C176.84 130.721 174.818 129.883 173.328 128.393C171.837 126.902 171 124.881 171 122.773C171 120.665 171.837 118.644 173.328 117.153L278.849 11.648Z" fill="#37455D"/>
<path d="M341.363 121.083C339.672 117.153 337.233 113.592 334.184 110.598C331.132 107.596 327.534 105.21 323.585 103.571C319.491 101.864 315.099 100.99 310.665 101C304.445 101 298.376 102.71 293.102 105.939C291.84 106.711 290.642 107.559 289.506 108.484C288.371 107.559 287.172 106.711 285.91 105.939C280.636 102.71 274.567 101 268.347 101C263.868 101 259.528 101.861 255.427 103.571C251.465 105.217 247.895 107.585 244.829 110.598C241.775 113.588 239.336 117.151 237.65 121.083C235.896 125.173 235 129.517 235 133.986C235 138.203 235.858 142.597 237.561 147.067C238.987 150.803 241.031 154.677 243.643 158.59C247.781 164.782 253.472 171.24 260.537 177.787C272.246 188.639 283.841 196.135 284.333 196.439L287.323 198.364C288.648 199.212 290.352 199.212 291.676 198.364L294.667 196.439C295.159 196.122 306.741 188.639 318.463 177.787C325.528 171.24 331.219 164.782 335.357 158.59C337.969 154.677 340.025 150.803 341.439 147.067C343.142 142.597 344 138.203 344 133.986C344.012 129.517 343.117 125.173 341.363 121.083V121.083Z" fill="white"/>
<path d="M325.21 129.935C324.061 127.208 322.406 124.737 320.336 122.66C318.264 120.577 315.821 118.921 313.14 117.784C310.361 116.599 307.379 115.993 304.369 116C300.146 116 296.026 117.186 292.445 119.427C291.589 119.963 290.775 120.551 290.004 121.193C289.233 120.551 288.42 119.963 287.563 119.427C283.982 117.186 279.862 116 275.639 116C272.599 116 269.652 116.598 266.868 117.784C264.178 118.926 261.754 120.569 259.673 122.66C257.6 124.735 255.944 127.207 254.799 129.935C253.608 132.773 253 135.787 253 138.889C253 141.814 253.582 144.863 254.739 147.965C255.707 150.557 257.094 153.245 258.868 155.96C261.677 160.257 265.54 164.738 270.337 169.281C278.286 176.811 286.158 182.012 286.492 182.223L288.522 183.558C289.422 184.147 290.578 184.147 291.478 183.558L293.508 182.223C293.842 182.003 301.705 176.811 309.663 169.281C314.46 164.738 318.323 160.257 321.132 155.96C322.905 153.245 324.302 150.557 325.261 147.965C326.417 144.863 327 141.814 327 138.889C327.008 135.787 326.4 132.773 325.21 129.935V129.935Z" fill="#D9E6FB"/>
</g>
</g>
<defs>
<filter id="filter0_d_471_340" x="-8" y="-25" width="465.145" height="485" filterUnits="userSpaceOnUse" color-interpolation-filters="sRGB">
<feFlood flood-opacity="0" result="BackgroundImageFix"/>
<feColorMatrix in="SourceAlpha" type="matrix" values="0 0 0 0 0 0 0 0 0 0 0 0 0 0 0 0 0 0 127 0" result="hardAlpha"/>
<feOffset dx="8" dy="8"/>
<feGaussianBlur stdDeviation="20"/>
<feComposite in2="hardAlpha" operator="out"/>
<feColorMatrix type="matrix" values="0 0 0 0 0 0 0 0 0 0 0 0 0 0 0 0 0 0 0.15 0"/>
<feBlend mode="normal" in2="BackgroundImageFix" result="effect1_dropShadow_471_340"/>
<feBlend mode="normal" in="SourceGraphic" in2="effect1_dropShadow_471_340" result="shape"/>
</filter>
<clipPath id="clip0_471_340">
<rect width="435" height="428" fill="white"/>
</clipPath>
</defs>
</svg>
