<svg width="435" height="428" viewBox="0 0 435 428" fill="none" xmlns="http://www.w3.org/2000/svg">
<g clip-path="url(#clip0_473_421)">
<circle cx="156.238" cy="277.762" r="137.238" fill="#D9E6FB"/>
<circle cx="260.16" cy="114.657" r="101.657" fill="#37455D"/>
<path d="M357.928 129.644C359.284 131.971 359.393 134.919 358.23 137.838C357.066 140.758 354.727 143.409 351.725 145.211L257.421 201.805C255.42 203.006 253.86 204.774 253.085 206.72C252.309 208.667 252.381 210.632 253.286 212.183C254.19 213.735 255.852 214.746 257.906 214.994C259.96 215.242 262.238 214.707 264.239 213.506L302.459 190.569L303.106 191.539C305.448 195.14 307.57 198.92 308.263 201.331C308.769 203.144 308.819 205.64 308.571 208.221C308.462 209.502 307.376 211.307 304.856 212.819L274.467 231.057C272.466 232.257 270.907 234.025 270.131 235.971C269.356 237.918 269.428 239.883 270.332 241.434C271.236 242.986 272.899 243.997 274.953 244.245C277.007 244.493 279.285 243.958 281.286 242.757L304.9 228.586L305.774 229.735C308.29 233.215 309.907 236.478 309.998 238.381C310.108 240.179 308.92 243.766 306.823 247.962C305.927 249.779 304.979 251.437 304.279 252.647L283.97 264.835C281.969 266.036 280.409 267.804 279.634 269.75C278.858 271.696 278.93 273.661 279.835 275.213C280.739 276.765 282.401 277.776 284.455 278.024C286.509 278.272 288.787 277.736 290.788 276.536L305.877 267.48L308.209 271.482C309.162 273.117 309.662 274.999 309.678 277.007C309.693 279.015 309.224 281.105 308.299 283.14C307.374 285.176 306.015 287.112 304.31 288.825C302.604 290.538 300.589 291.989 298.396 293.085L255.582 314.499C250.079 317.248 244.248 319.042 238.468 319.763L192.109 325.554C190.656 325.735 189.266 325.572 188.078 325.081C186.891 324.59 185.949 323.789 185.347 322.758L142.376 249.022C141.743 247.936 141.513 246.638 141.71 245.273C141.907 243.908 142.524 242.53 143.493 241.292L172.286 204.556L218.304 137.269C219.496 135.534 221.273 134.108 223.3 133.258C225.326 132.408 227.464 132.194 229.31 132.654C231.157 133.115 232.585 134.22 233.328 135.76C234.07 137.301 234.075 139.171 233.341 141.021L213.41 191.042C212.83 192.494 212.717 193.968 213.085 195.279C213.454 196.59 214.288 197.678 215.482 198.405C216.676 199.133 218.175 199.467 219.791 199.366C221.407 199.265 223.067 198.733 224.56 197.838L341.497 127.66C344.499 125.859 347.916 125.056 350.997 125.428C354.079 125.8 356.572 127.317 357.928 129.644ZM317.563 181.505L358.544 156.911C365.547 152.708 371.006 146.52 373.72 139.709C376.435 132.897 376.181 126.019 373.017 120.589C369.852 115.158 364.035 111.62 356.845 110.752C349.655 109.883 341.682 111.757 334.679 115.96L235.953 175.208L248.83 142.891C250.974 137.467 250.954 131.982 248.774 127.467C246.593 122.951 242.402 119.715 236.986 118.366C231.57 117.016 225.302 117.646 219.359 120.137C213.415 122.629 208.204 126.81 204.704 131.896L159.026 198.648L130.645 234.868C127.735 238.583 125.88 242.722 125.287 246.821C124.693 250.92 125.386 254.818 127.287 258.077L170.258 331.813C172.063 334.906 174.889 337.31 178.451 338.783C182.014 340.257 186.185 340.746 190.543 340.201L236.887 334.42C244.988 333.409 253.161 330.894 260.873 327.037L303.687 305.623C308.072 303.431 312.098 300.528 315.507 297.103C318.917 293.677 321.633 289.805 323.48 285.735C325.328 281.665 326.266 277.489 326.235 273.474C326.203 269.459 325.203 265.696 323.298 262.427L319.336 255.629C320.188 254.132 320.992 252.622 321.749 251.102C323.901 246.793 326.841 239.991 326.552 234.322C326.273 228.741 322.775 223.228 320.285 219.795L319.204 218.359C322.59 214.645 324.665 210.273 325.073 205.993C325.506 202.1 325.274 198.309 324.386 194.75C323.208 190.562 320.222 185.579 317.92 182.048L317.563 181.505Z" fill="#4F5D75"/>
<path d="M357.928 118.462C359.284 120.789 359.393 123.737 358.23 126.656C357.066 129.575 354.727 132.227 351.725 134.028L257.421 190.623C255.42 191.824 253.86 193.592 253.085 195.538C252.309 197.484 252.381 199.449 253.286 201.001C254.19 202.553 255.852 203.564 257.906 203.812C259.96 204.06 262.238 203.524 264.239 202.324L302.459 179.387L303.106 180.357C305.448 183.957 307.57 187.738 308.263 190.149C308.769 191.961 308.819 194.458 308.571 197.039C308.462 198.32 307.376 200.125 304.856 201.637L274.467 219.874C272.466 221.075 270.907 222.843 270.131 224.789C269.356 226.735 269.428 228.7 270.332 230.252C271.236 231.804 272.899 232.815 274.953 233.063C277.007 233.311 279.285 232.775 281.286 231.575L304.9 217.403L305.774 218.553C308.29 222.033 309.907 225.295 309.998 227.199C310.108 228.996 308.92 232.584 306.823 236.779C305.927 238.596 304.979 240.255 304.279 241.465L283.97 253.653C281.969 254.854 280.409 256.622 279.634 258.568C278.858 260.514 278.93 262.479 279.835 264.031C280.739 265.582 282.401 266.593 284.455 266.841C286.509 267.089 288.787 266.554 290.788 265.353L305.877 256.298L308.209 260.3C309.162 261.935 309.662 263.817 309.678 265.825C309.693 267.833 309.224 269.922 308.299 271.958C307.374 273.993 306.015 275.93 304.31 277.643C302.604 279.356 300.589 280.807 298.396 281.902L255.582 303.316C250.079 306.066 244.248 307.86 238.468 308.581L192.109 314.371C190.656 314.553 189.266 314.39 188.078 313.899C186.891 313.408 185.949 312.606 185.347 311.575L142.376 237.839C141.743 236.754 141.513 235.456 141.71 234.091C141.907 232.726 142.524 231.347 143.493 230.11L172.286 193.374L218.304 126.087C219.496 124.352 221.273 122.926 223.3 122.076C225.326 121.226 227.464 121.011 229.31 121.472C231.157 121.933 232.585 123.037 233.328 124.578C234.07 126.118 234.075 127.989 233.341 129.839L213.41 179.86C212.83 181.311 212.717 182.786 213.085 184.097C213.454 185.408 214.288 186.496 215.482 187.223C216.676 187.951 218.175 188.285 219.791 188.184C221.407 188.083 223.067 187.551 224.56 186.655L341.497 116.478C344.499 114.677 347.916 113.874 350.997 114.246C354.079 114.618 356.572 116.134 357.928 118.462ZM317.563 170.323L358.544 145.729C365.547 141.526 371.006 135.338 373.72 128.526C376.435 121.715 376.181 114.837 373.017 109.406C369.852 103.976 364.035 100.437 356.845 99.5693C349.655 98.7012 341.682 100.575 334.679 104.777L235.953 164.025L248.83 131.709C250.974 126.285 250.954 120.8 248.774 116.285C246.593 111.769 242.402 108.533 236.986 107.183C231.57 105.834 225.302 106.464 219.359 108.955C213.415 111.446 208.204 115.627 204.704 120.714L159.026 187.466L130.645 223.686C127.735 227.4 125.88 231.539 125.287 235.639C124.693 239.738 125.386 243.635 127.287 246.894L170.258 320.631C172.063 323.723 174.889 326.128 178.451 327.601C182.014 329.074 186.185 329.563 190.543 329.019L236.887 323.237C244.988 322.227 253.161 319.711 260.873 315.855L303.687 294.441C308.072 292.248 312.098 289.346 315.507 285.92C318.917 282.495 321.633 278.623 323.48 274.553C325.328 270.483 326.266 266.306 326.235 262.292C326.203 258.277 325.203 254.514 323.298 251.244L319.336 244.447C320.188 242.949 320.992 241.44 321.749 239.919C323.901 235.611 326.841 228.809 326.552 223.139C326.273 217.558 322.775 212.046 320.285 208.612L319.204 207.177C322.59 203.463 324.665 199.091 325.073 194.811C325.506 190.918 325.274 187.127 324.386 183.568C323.208 179.38 320.222 174.396 317.92 170.866L317.563 170.323Z" fill="#F9FAFB"/>
<path fill-rule="evenodd" clip-rule="evenodd" d="M363.193 140.733C359.264 141.816 354.961 142.086 350.504 141.407C356.142 150.218 355.515 161.708 348.774 167.844C341.586 174.386 330.124 172.403 323.226 163.424C316.329 154.446 316.565 141.816 323.753 135.274C325.862 133.355 328.337 132.17 330.958 131.679C327.393 128.288 324.525 124.245 322.575 119.86C320.011 120.918 317.594 122.432 315.413 124.417C303.432 135.322 303.038 156.369 314.535 171.335C319.345 177.582 325.732 182.064 332.62 184.025C339.507 185.987 346.473 185.307 352.343 182.102L361.109 193.512L352.417 201.422L360.757 212.279L369.449 204.369L377.789 215.225L364.752 227.091L373.092 237.947L386.129 226.082L390.299 231.51L398.991 223.599L361.035 174.191C364.972 168.47 366.82 161.128 366.266 153.403C365.956 149.076 364.902 144.778 363.193 140.733Z" fill="#4F5D75"/>
<path fill-rule="evenodd" clip-rule="evenodd" d="M362.865 134.446C358.935 135.529 354.632 135.799 350.176 135.12C355.814 143.93 355.187 155.421 348.445 161.556C341.257 168.098 329.795 166.116 322.898 157.137C316 148.159 316.237 135.529 323.425 128.987C325.533 127.068 328.009 125.883 330.629 125.392C327.064 122.001 324.196 117.958 322.246 113.572C319.682 114.631 317.265 116.145 315.084 118.13C303.103 129.035 302.709 150.082 314.206 165.048C319.016 171.295 325.404 175.777 332.291 177.738C339.178 179.7 346.144 179.02 352.014 175.815L360.78 187.225L352.088 195.135L360.429 205.992L369.12 198.081L377.461 208.938L364.423 220.804L372.763 231.66L385.801 219.795L389.971 225.223L398.662 217.312L360.706 167.904C364.644 162.183 366.491 154.841 365.937 147.116C365.627 142.789 364.574 138.491 362.865 134.446Z" fill="#D9E6FB"/>
</g>
<defs>
<clipPath id="clip0_473_421">
<rect width="435" height="427" fill="white" transform="translate(0 1)"/>
</clipPath>
</defs>
</svg>
