<svg width="55" height="54" viewBox="0 0 55 54" fill="none" xmlns="http://www.w3.org/2000/svg">
<rect x="0.5" y="0.5" width="54" height="53" rx="19.5" fill="#F9FAFB"/>
<path d="M28.36 34V25.624C28.36 23.272 27.16 22.12 25.024 22.12C23.296 22.12 21.76 23.2 21.088 24.256C20.704 22.984 19.648 22.12 17.92 22.12C16.168 22.12 14.632 23.272 14.152 23.992V22.408H11.632V34H14.152V25.912C14.68 25.144 15.712 24.352 16.816 24.352C18.184 24.352 18.736 25.192 18.736 26.44V34H21.256V25.888C21.76 25.144 22.816 24.352 23.944 24.352C25.288 24.352 25.84 25.192 25.84 26.44V34H28.36ZM42.7842 34V31.528H35.6802C39.9762 28.288 42.6882 25.648 42.6882 22.696C42.6882 19.504 39.9762 17.752 36.8802 17.752C34.6482 17.752 32.3922 18.616 30.9762 20.32L32.6082 22.168C33.6162 21.016 35.0562 20.248 36.9282 20.248C38.3922 20.248 39.8322 21.016 39.8322 22.696C39.8322 25 37.4082 27.088 31.1922 31.792V34H42.7842Z" fill="#37455D"/>
<rect x="0.5" y="0.5" width="54" height="53" rx="19.5" stroke="#D9E6FB"/>
</svg>
