<svg width="188" height="24" viewBox="0 0 188 24" fill="none" xmlns="http://www.w3.org/2000/svg">
<path d="M187.224 8.45108L180.03 7.35612L176.813 0.528203C176.725 0.341259 176.581 0.189923 176.402 0.0979342C175.955 -0.133521 175.411 0.0593584 175.187 0.528203L171.971 7.35612L164.776 8.45108C164.577 8.48076 164.396 8.57868 164.257 8.72705C164.089 8.90772 163.997 9.15079 164 9.40284C164.003 9.6549 164.102 9.89531 164.274 10.0713L169.48 15.3858L168.25 22.8903C168.221 23.0649 168.24 23.2444 168.303 23.4086C168.367 23.5727 168.473 23.7149 168.61 23.819C168.747 23.9231 168.909 23.985 169.078 23.9976C169.246 24.0102 169.415 23.973 169.565 23.8903L176 20.3473L182.435 23.8903C182.611 23.9882 182.815 24.0209 183.011 23.9853C183.504 23.8962 183.835 23.4066 183.75 22.8903L182.52 15.3858L187.726 10.0713C187.868 9.92587 187.961 9.73595 187.989 9.52824C188.066 9.00895 187.72 8.52823 187.224 8.45108ZM180.33 14.6381L181.353 20.8784L176 17.9348L170.647 20.8814L171.67 14.641L167.34 10.2196L173.325 9.30865L176 3.63207L178.675 9.30865L184.66 10.2196L180.33 14.6381Z" fill="#37455D"/>
<path d="M23.2243 8.45108L16.0296 7.35612L12.8133 0.528203C12.7255 0.341259 12.581 0.189923 12.4024 0.0979342C11.9547 -0.133521 11.4106 0.0593584 11.1868 0.528203L7.97055 7.35612L0.77582 8.45108C0.577461 8.48076 0.396105 8.57868 0.257255 8.72705C0.0893918 8.90772 -0.0031083 9.15079 7.97568e-05 9.40284C0.00326781 9.6549 0.101883 9.89531 0.274257 10.0713L5.47974 15.3858L4.24992 22.8903C4.22108 23.0649 4.23953 23.2444 4.30317 23.4086C4.36681 23.5727 4.47311 23.7149 4.60999 23.819C4.74688 23.9231 4.90889 23.985 5.07764 23.9976C5.24639 24.0102 5.41514 23.973 5.56475 23.8903L12.0001 20.3473L18.4354 23.8903C18.6111 23.9882 18.8151 24.0209 19.0106 23.9853C19.5037 23.8962 19.8352 23.4066 19.7502 22.8903L18.5204 15.3858L23.7259 10.0713C23.8675 9.92587 23.9611 9.73595 23.9894 9.52824C24.0659 9.00895 23.7202 8.52823 23.2243 8.45108ZM16.3299 14.6381L17.3529 20.8784L12.0001 17.9348L6.64722 20.8814L7.67018 14.641L3.34031 10.2196L9.32506 9.30865L12.0001 3.63207L14.6751 9.30865L20.6598 10.2196L16.3299 14.6381Z" fill="#37455D"/>
<path d="M146.224 8.45108L139.03 7.35612L135.813 0.528203C135.725 0.341259 135.581 0.189923 135.402 0.0979342C134.955 -0.133521 134.411 0.0593584 134.187 0.528203L130.971 7.35612L123.776 8.45108C123.577 8.48076 123.396 8.57868 123.257 8.72705C123.089 8.90772 122.997 9.15079 123 9.40284C123.003 9.6549 123.102 9.89531 123.274 10.0713L128.48 15.3858L127.25 22.8903C127.221 23.0649 127.24 23.2444 127.303 23.4086C127.367 23.5727 127.473 23.7149 127.61 23.819C127.747 23.9231 127.909 23.985 128.078 23.9976C128.246 24.0102 128.415 23.973 128.565 23.8903L135 20.3473L141.435 23.8903C141.611 23.9882 141.815 24.0209 142.011 23.9853C142.504 23.8962 142.835 23.4066 142.75 22.8903L141.52 15.3858L146.726 10.0713C146.868 9.92587 146.961 9.73595 146.989 9.52824C147.066 9.00895 146.72 8.52823 146.224 8.45108ZM139.33 14.6381L140.353 20.8784L135 17.9348L129.647 20.8814L130.67 14.641L126.34 10.2196L132.325 9.30865L135 3.63207L137.675 9.30865L143.66 10.2196L139.33 14.6381Z" fill="#37455D"/>
<path d="M64.2243 8.45108L57.0296 7.35612L53.8133 0.528203C53.7255 0.341259 53.581 0.189923 53.4024 0.0979342C52.9547 -0.133521 52.4106 0.0593584 52.1868 0.528203L48.9706 7.35612L41.7758 8.45108C41.5775 8.48076 41.3961 8.57868 41.2573 8.72705C41.0894 8.90772 40.9969 9.15079 41.0001 9.40284C41.0033 9.6549 41.1019 9.89531 41.2743 10.0713L46.4797 15.3858L45.2499 22.8903C45.2211 23.0649 45.2395 23.2444 45.3032 23.4086C45.3668 23.5727 45.4731 23.7149 45.61 23.819C45.7469 23.9231 45.9089 23.985 46.0776 23.9976C46.2464 24.0102 46.4151 23.973 46.5648 23.8903L53.0001 20.3473L59.4354 23.8903C59.6111 23.9882 59.8151 24.0209 60.0106 23.9853C60.5037 23.8962 60.8352 23.4066 60.7502 22.8903L59.5204 15.3858L64.7259 10.0713C64.8675 9.92587 64.9611 9.73595 64.9894 9.52824C65.0659 9.00895 64.7202 8.52823 64.2243 8.45108ZM57.3299 14.6381L58.3529 20.8784L53.0001 17.9348L47.6472 20.8814L48.6702 14.641L44.3403 10.2196L50.3251 9.30865L53.0001 3.63207L55.6751 9.30865L61.6598 10.2196L57.3299 14.6381Z" fill="#37455D"/>
<path d="M105.224 8.45108L98.0296 7.35612L94.8133 0.528203C94.7255 0.341259 94.581 0.189923 94.4024 0.0979342C93.9547 -0.133521 93.4106 0.0593584 93.1868 0.528203L89.9706 7.35612L82.7758 8.45108C82.5775 8.48076 82.3961 8.57868 82.2573 8.72705C82.0894 8.90772 81.9969 9.15079 82.0001 9.40284C82.0033 9.6549 82.1019 9.89531 82.2743 10.0713L87.4797 15.3858L86.2499 22.8903C86.2211 23.0649 86.2395 23.2444 86.3032 23.4086C86.3668 23.5727 86.4731 23.7149 86.61 23.819C86.7469 23.9231 86.9089 23.985 87.0776 23.9976C87.2464 24.0102 87.4151 23.973 87.5648 23.8903L94.0001 20.3473L100.435 23.8903C100.611 23.9882 100.815 24.0209 101.011 23.9853C101.504 23.8962 101.835 23.4066 101.75 22.8903L100.52 15.3858L105.726 10.0713C105.868 9.92587 105.961 9.73595 105.989 9.52824C106.066 9.00895 105.72 8.52823 105.224 8.45108ZM98.3299 14.6381L99.3529 20.8784L94.0001 17.9348L88.6472 20.8814L89.6702 14.641L85.3403 10.2196L91.3251 9.30865L94.0001 3.63207L96.6751 9.30865L102.66 10.2196L98.3299 14.6381Z" fill="#37455D"/>
</svg>
