<svg width="64" height="54" viewBox="0 0 64 54" fill="none" xmlns="http://www.w3.org/2000/svg">
<rect x="0.5" y="0.5" width="63" height="53" rx="19.5" fill="#F9FAFB"/>
<path d="M10.672 31.744C12.088 33.256 14.224 34.288 17.176 34.288C21.496 34.288 23.368 32.008 23.368 29.344C23.368 25.864 20.224 25.048 17.584 24.376C15.688 23.896 14.056 23.488 14.056 22.24C14.056 21.04 15.112 20.248 16.768 20.248C18.448 20.248 20.152 20.824 21.4 22.072L23.008 19.984C21.52 18.544 19.504 17.752 17.008 17.752C13.504 17.752 11.176 19.792 11.176 22.432C11.176 25.816 14.248 26.584 16.864 27.232C18.808 27.736 20.512 28.168 20.512 29.608C20.512 30.664 19.6 31.792 17.296 31.792C15.064 31.792 13.336 30.76 12.232 29.584L10.672 31.744ZM36.922 34V31.528H28.762V27.088H36.754V24.616H28.762V20.464H36.922V17.992H25.954V34H36.922ZM52.8376 34L45.8536 25.552L52.3576 17.992H48.8776L42.6136 25.624V17.992H39.8056V34H42.6136V28.888L44.0056 27.256L49.3816 34H52.8376Z" fill="#37455D"/>
<rect x="0.5" y="0.5" width="63" height="53" rx="19.5" stroke="#D9E6FB"/>
</svg>
