<svg width="55" height="54" viewBox="0 0 55 54" fill="none" xmlns="http://www.w3.org/2000/svg">
<rect x="0.5" y="0.5" width="54" height="53" rx="19.5" fill="#F9FAFB"/>
<path d="M18.624 32.488C19.824 33.664 21.624 34.288 23.592 34.288C26.712 34.288 28.416 32.728 28.416 30.688C28.416 27.952 25.944 27.376 23.928 26.944C22.56 26.632 21.408 26.32 21.408 25.432C21.408 24.616 22.248 24.136 23.568 24.136C25.008 24.136 26.304 24.736 27 25.528L28.056 23.752C27 22.816 25.512 22.12 23.544 22.12C20.616 22.12 18.984 23.752 18.984 25.648C18.984 28.24 21.36 28.768 23.352 29.2C24.768 29.512 25.992 29.872 25.992 30.88C25.992 31.744 25.224 32.296 23.712 32.296C22.2 32.296 20.592 31.504 19.776 30.664L18.624 32.488ZM34.4323 34.288C35.6083 34.288 36.3523 33.976 36.8083 33.544L36.2083 31.648C36.0163 31.864 35.5603 32.056 35.0803 32.056C34.3603 32.056 33.9763 31.48 33.9763 30.688V24.616H36.3283V22.408H33.9763V19.24H31.4563V22.408H29.5363V24.616H31.4563V31.312C31.4563 33.232 32.4883 34.288 34.4323 34.288Z" fill="#37455D"/>
<rect x="0.5" y="0.5" width="54" height="53" rx="19.5" stroke="#D9E6FB"/>
</svg>
