<svg width="435" height="353" viewBox="0 0 435 353" fill="none" xmlns="http://www.w3.org/2000/svg">
<g clip-path="url(#clip0_473_370)">
<circle cx="135" cy="211" r="135" fill="#D9E6FB"/>
<circle cx="263" cy="100" r="100" fill="#37455D"/>
<path d="M359.174 114.742C360.508 117.032 360.615 119.931 359.47 122.803C358.326 125.675 356.025 128.283 353.072 130.055L260.305 185.727C258.337 186.908 256.803 188.647 256.04 190.562C255.277 192.476 255.348 194.409 256.237 195.936C257.127 197.462 258.762 198.457 260.783 198.701C262.803 198.945 265.044 198.418 267.013 197.237L304.609 174.674L305.246 175.628C307.55 179.17 309.637 182.889 310.318 185.261C310.816 187.043 310.865 189.5 310.622 192.038C310.515 193.298 309.446 195.074 306.967 196.561L277.074 214.501C275.106 215.682 273.571 217.422 272.808 219.336C272.046 221.251 272.117 223.184 273.006 224.71C273.896 226.236 275.531 227.231 277.551 227.475C279.572 227.719 281.813 227.192 283.781 226.011L307.01 212.071L307.87 213.202C310.345 216.625 311.935 219.834 312.025 221.707C312.134 223.475 310.965 227.003 308.902 231.131C308.021 232.918 307.088 234.55 306.4 235.74L286.421 247.729C284.453 248.91 282.919 250.649 282.156 252.564C281.393 254.478 281.464 256.411 282.354 257.938C283.243 259.464 284.878 260.459 286.899 260.703C288.919 260.947 291.16 260.42 293.129 259.239L307.971 250.331L310.265 254.268C311.203 255.876 311.695 257.728 311.71 259.703C311.726 261.678 311.264 263.733 310.354 265.736C309.444 267.738 308.108 269.643 306.43 271.328C304.752 273.013 302.77 274.44 300.612 275.518L258.497 296.583C253.083 299.288 247.347 301.052 241.661 301.762L196.058 307.458C194.629 307.636 193.261 307.476 192.093 306.993C190.925 306.51 189.998 305.721 189.407 304.707L147.136 232.173C146.514 231.106 146.287 229.829 146.481 228.486C146.675 227.143 147.282 225.787 148.235 224.57L176.558 188.433L221.826 122.243C222.999 120.536 224.747 119.133 226.74 118.297C228.734 117.461 230.837 117.25 232.653 117.704C234.47 118.157 235.875 119.243 236.605 120.759C237.335 122.274 237.34 124.114 236.618 125.934L217.012 175.139C216.441 176.567 216.33 178.018 216.693 179.307C217.056 180.597 217.876 181.667 219.05 182.383C220.224 183.098 221.7 183.427 223.289 183.328C224.879 183.228 226.511 182.705 227.98 181.824L343.011 112.791C345.963 111.019 349.325 110.229 352.356 110.595C355.387 110.961 357.84 112.453 359.174 114.742ZM319.467 165.758L359.78 141.565C366.669 137.43 372.039 131.343 374.709 124.643C377.379 117.942 377.13 111.177 374.016 105.835C370.903 100.493 365.181 97.0118 358.109 96.1579C351.036 95.3039 343.192 97.1467 336.304 101.281L239.187 159.563L251.854 127.773C253.964 122.438 253.944 117.042 251.799 112.601C249.654 108.159 245.531 104.975 240.204 103.648C234.876 102.32 228.71 102.94 222.864 105.391C217.017 107.841 211.891 111.954 208.448 116.958L163.515 182.621L135.597 218.251C132.734 221.905 130.909 225.976 130.325 230.009C129.742 234.041 130.423 237.875 132.293 241.081L174.564 313.615C176.339 316.657 179.119 319.023 182.623 320.472C186.127 321.921 190.231 322.402 194.518 321.866L240.106 316.179C248.075 315.185 256.115 312.711 263.701 308.917L305.817 287.852C310.13 285.695 314.091 282.84 317.445 279.471C320.798 276.101 323.47 272.292 325.288 268.288C327.105 264.285 328.028 260.176 327.997 256.227C327.966 252.278 326.982 248.576 325.108 245.36L321.211 238.673C322.049 237.2 322.84 235.715 323.584 234.219C325.702 229.981 328.594 223.29 328.309 217.713C328.034 212.223 324.594 206.8 322.145 203.423L321.081 202.011C324.412 198.358 326.453 194.057 326.854 189.847C327.28 186.017 327.053 182.288 326.179 178.787C325.02 174.667 322.083 169.765 319.819 166.292L319.467 165.758Z" fill="#4F5D75"/>
<path d="M359.174 103.742C360.508 106.032 360.615 108.931 359.47 111.803C358.326 114.675 356.025 117.283 353.072 119.055L260.305 174.727C258.337 175.908 256.803 177.647 256.04 179.562C255.277 181.476 255.348 183.409 256.237 184.936C257.127 186.462 258.762 187.457 260.783 187.701C262.803 187.945 265.044 187.418 267.013 186.237L304.609 163.674L305.246 164.628C307.55 168.17 309.637 171.889 310.318 174.261C310.816 176.043 310.865 178.5 310.622 181.038C310.515 182.298 309.446 184.074 306.967 185.561L277.074 203.501C275.106 204.682 273.571 206.422 272.808 208.336C272.046 210.251 272.117 212.184 273.006 213.71C273.896 215.236 275.531 216.231 277.551 216.475C279.572 216.719 281.813 216.192 283.781 215.011L307.01 201.071L307.87 202.202C310.345 205.625 311.935 208.834 312.025 210.707C312.134 212.475 310.965 216.003 308.902 220.131C308.021 221.918 307.088 223.55 306.4 224.74L286.421 236.729C284.453 237.91 282.919 239.649 282.156 241.564C281.393 243.478 281.464 245.411 282.354 246.938C283.243 248.464 284.878 249.459 286.899 249.703C288.919 249.947 291.16 249.42 293.129 248.239L307.971 239.331L310.265 243.268C311.203 244.876 311.695 246.728 311.71 248.703C311.726 250.678 311.264 252.733 310.354 254.736C309.444 256.738 308.108 258.643 306.43 260.328C304.752 262.013 302.77 263.44 300.612 264.518L258.497 285.583C253.083 288.288 247.347 290.052 241.661 290.762L196.058 296.458C194.629 296.636 193.261 296.476 192.093 295.993C190.925 295.51 189.998 294.721 189.407 293.707L147.136 221.173C146.514 220.106 146.287 218.829 146.481 217.486C146.675 216.143 147.282 214.787 148.235 213.57L176.558 177.433L221.826 111.243C222.999 109.536 224.747 108.133 226.74 107.297C228.734 106.461 230.837 106.25 232.653 106.704C234.47 107.157 235.875 108.243 236.605 109.759C237.335 111.274 237.34 113.114 236.618 114.934L217.012 164.139C216.441 165.567 216.33 167.018 216.693 168.307C217.056 169.597 217.876 170.667 219.05 171.383C220.224 172.098 221.7 172.427 223.289 172.328C224.879 172.228 226.511 171.705 227.98 170.824L343.011 101.791C345.963 100.019 349.325 99.229 352.356 99.595C355.387 99.961 357.84 101.453 359.174 103.742ZM319.467 154.758L359.78 130.565C366.669 126.43 372.039 120.343 374.709 113.643C377.379 106.942 377.13 100.177 374.016 94.8347C370.903 89.4927 365.181 86.0118 358.109 85.1579C351.036 84.3039 343.192 86.1467 336.304 90.2809L239.187 148.563L251.854 116.773C253.964 111.438 253.944 106.042 251.799 101.601C249.654 97.1586 245.531 93.9752 240.204 92.6477C234.876 91.3202 228.71 91.9399 222.864 94.3905C217.017 96.8411 211.891 100.954 208.448 105.958L163.515 171.621L135.597 207.251C132.734 210.905 130.909 214.976 130.325 219.009C129.742 223.041 130.423 226.875 132.293 230.081L174.564 302.615C176.339 305.657 179.119 308.023 182.623 309.472C186.127 310.921 190.231 311.402 194.518 310.866L240.106 305.179C248.075 304.185 256.115 301.711 263.701 297.917L305.817 276.852C310.13 274.695 314.091 271.84 317.445 268.471C320.798 265.101 323.47 261.292 325.288 257.288C327.105 253.285 328.028 249.176 327.997 245.227C327.966 241.278 326.982 237.576 325.108 234.36L321.211 227.673C322.049 226.2 322.84 224.715 323.584 223.219C325.702 218.981 328.594 212.29 328.309 206.713C328.034 201.223 324.594 195.8 322.145 192.423L321.081 191.011C324.412 187.358 326.453 183.057 326.854 178.847C327.28 175.017 327.053 171.288 326.179 167.787C325.02 163.667 322.083 158.765 319.819 155.292L319.467 154.758Z" fill="#F9FAFB"/>
<path fill-rule="evenodd" clip-rule="evenodd" d="M365.43 125.356C361.728 126.905 357.648 127.674 353.403 127.518C357.885 135.843 356.751 146.436 350.277 152.52C342.98 159.378 331.617 157.952 324.951 149.342C318.285 140.732 318.799 128.145 326.096 121.288C327.828 119.659 329.79 118.498 331.863 117.789C328.667 114.533 326.13 110.64 324.441 106.389C322.169 107.525 320.012 109.019 318.035 110.877C305.872 122.307 305.017 143.282 316.128 157.634C320.778 163.624 327.035 167.781 333.846 169.405C340.656 171.028 347.603 170.019 353.515 166.546L361.986 177.488L353.163 185.78L361.223 196.191L370.047 187.899L378.107 198.31L364.872 210.748L372.933 221.159L386.167 208.721L390.198 213.926L399.021 205.634L362.338 158.254C366.382 152.37 368.382 144.971 368.001 137.306C367.797 133.2 366.916 129.152 365.43 125.356Z" fill="#4F5D75"/>
<path fill-rule="evenodd" clip-rule="evenodd" d="M365.106 119.171C361.405 120.72 357.324 121.49 353.08 121.333C357.562 129.658 356.427 140.252 349.954 146.336C342.657 153.193 331.294 151.767 324.628 143.157C317.962 134.547 318.476 121.96 325.772 115.103C327.505 113.475 329.467 112.314 331.54 111.605C328.344 108.348 325.807 104.455 324.118 100.204C321.845 101.341 319.689 102.834 317.712 104.692C305.549 116.123 304.694 137.098 315.805 151.449C320.454 157.439 326.712 161.597 333.522 163.22C340.333 164.844 347.279 163.834 353.191 160.362L361.663 171.304L352.84 179.596L360.9 190.006L369.723 181.715L377.784 192.125L364.549 204.563L372.609 214.974L385.844 202.536L389.874 207.742L398.698 199.45L362.015 152.07C366.059 146.185 368.059 138.787 367.678 131.121C367.473 127.015 366.593 122.968 365.106 119.171Z" fill="#D9E6FB"/>
</g>
<defs>
<clipPath id="clip0_473_370">
<rect width="435" height="353" fill="white"/>
</clipPath>
</defs>
</svg>
